<?xml version="1.0" standalone="no"?>
<!DOCTYPE svg PUBLIC "-//W3C//DTD SVG 20010904//EN"
 "http://www.w3.org/TR/2001/REC-SVG-20010904/DTD/svg10.dtd">
<svg version="1.0" xmlns="http://www.w3.org/2000/svg"
 width="816.000000pt" height="816.000000pt" viewBox="0 0 816.000000 816.000000"
 preserveAspectRatio="xMidYMid meet">
<metadata>
Created by potrace 1.11, written by Peter Selinger 2001-2013
</metadata>
<g transform="translate(0.000000,816.000000) scale(0.100000,-0.100000)"
fill="#000000" stroke="none">
<path d="M2027 7574 c-1 -1 -42 -4 -92 -7 -460 -31 -877 -367 -1018 -822 -53
-173 -51 -68 -51 -2650 0 -1320 3 -2431 7 -2470 12 -132 43 -243 102 -371 149
-320 415 -543 770 -645 l80 -24 2480 -3 c1883 -3 2500 0 2565 9 354 49 694
297 859 626 64 128 107 275 118 407 4 45 7 1159 7 2476 0 1941 -2 2411 -13
2480 -82 522 -496 920 -1026 986 -46 5 -4780 13 -4788 8z"/>
</g>
</svg>
